<svg xmlns="http://www.w3.org/2000/svg" viewBox="0 0 1484 1521.89"><g id="_1stpagecredit" data-name="1stpagecredit"><path d="M7,1377.34H23.21v2.75H9.42v15.1H21.07v2.74H9.42v18.6H7Z" transform="translate(-7 -33)"/><path d="M44.69,1416.53l-7.82-17.68h-6v17.68H28.45v-39.19H37c5.85,0,9.8,2.85,9.8,10.49,0,6.23-2.86,9.83-7.34,10.75l7.94,18Zm-13.82-20.37h5.6c5.08,0,7.9-2.69,7.9-8.33s-2.82-7.8-7.9-7.8h-5.6Z" transform="translate(-7 -33)"/><path d="M53,1377.34h2.42v39.19H53Z" transform="translate(-7 -33)"/><path d="M63.92,1377.34h6.94c9,0,13.46,7.48,13.46,19.46s-4.43,19.73-13.42,19.73h-7Zm6.7,36.45c7.74,0,11.16-6.83,11.16-17S78.36,1380,70.62,1380H66.34v33.76Z" transform="translate(-7 -33)"/><path d="M103.84,1403.36H92.39L89,1416.53H86.62l10.28-39.19h2.5l10.28,39.19H107.1Zm-.65-2.58-1.77-7.09c-1.21-4.57-2.18-8.71-3.23-13.44H98c-1,4.73-2,8.87-3.18,13.44L93,1400.78Z" transform="translate(-7 -33)"/><path d="M129.13,1377.34h2.42v21.29h.08l13.79-21.29h2.86l-9.35,14.57,10.68,24.62h-2.78l-9.52-22.09-5.76,8.87v13.22h-2.42Z" transform="translate(-7 -33)"/><path d="M167.06,1403.36H155.62l-3.35,13.17h-2.42l10.28-39.19h2.5l10.28,39.19h-2.58Zm-.64-2.58-1.77-7.09c-1.21-4.57-2.18-8.71-3.23-13.44h-.16c-1,4.73-2,8.87-3.18,13.44l-1.82,7.09Z" transform="translate(-7 -33)"/><path d="M177.47,1377.34h2.42v17h15.27v-17h2.38v39.19h-2.38v-19.4H179.89v19.4h-2.42Z" transform="translate(-7 -33)"/><path d="M206.09,1377.34h2.42v36.4h13.38v2.79h-15.8Z" transform="translate(-7 -33)"/><path d="M224.31,1396.8c0-12.41,5.08-20.15,12.18-20.15s12.21,7.74,12.21,20.15-5,20.43-12.21,20.43S224.31,1409.27,224.31,1396.8Zm21.89,0c0-10.64-3.87-17.25-9.71-17.25s-9.64,6.61-9.64,17.25,3.83,17.53,9.64,17.53S246.2,1407.45,246.2,1396.8Z" transform="translate(-7 -33)"/><path d="M270.33,1377.34h6.93c9,0,13.47,7.48,13.47,19.46s-4.44,19.73-13.43,19.73h-7Zm6.69,36.45c7.74,0,11.17-6.83,11.17-17S284.76,1380,277,1380h-4.27v33.76Z" transform="translate(-7 -33)"/><path d="M310.24,1403.36H298.79l-3.34,13.17H293l10.28-39.19h2.5l10.27,39.19H313.5Zm-.65-2.58-1.77-7.09c-1.21-4.57-2.18-8.71-3.22-13.44h-.17c-1,4.73-2,8.87-3.18,13.44l-1.81,7.09Z" transform="translate(-7 -33)"/><path d="M320.64,1377.34h3.23l6,22.53,2.3,8.6h.16c.77-2.85,1.45-5.75,2.18-8.6l6.05-22.53h3.22v39.19h-2.3V1391.7c0-3.23.16-7.53.29-10.81h-.17l-2.29,8.76-6.17,22.69h-1.94l-6.2-22.69-2.3-8.76h-.16c.12,3.28.28,7.58.28,10.81v24.83h-2.22Z" transform="translate(-7 -33)"/><path d="M352.37,1377.34h2.42v39.19h-2.42Z" transform="translate(-7 -33)"/><path d="M363.33,1377.34h16.25v2.75H365.75v14.29H377.4v2.75H365.75v16.61H380v2.79H363.33Z" transform="translate(-7 -33)"/><path d="M386.43,1377.34h2.5l12,26.93,3.26,7.91h.2c-.16-3.87-.32-7.8-.32-11.61v-23.23h2.3v39.19h-2.5l-12-27-3.31-7.85h-.2c.12,3.76.32,7.42.32,11.34v23.49h-2.3Z" transform="translate(-7 -33)"/><path d="M429.83,1377.34h2.42v17h15.28v-17h2.37v39.19h-2.37v-19.4H432.25v19.4h-2.42Z" transform="translate(-7 -33)"/><path d="M458.45,1377.34h2.42v39.19h-2.42Z" transform="translate(-7 -33)"/><path d="M485.66,1416.53l-7.82-17.68h-6v17.68h-2.42v-39.19H478c5.85,0,9.8,2.85,9.8,10.49,0,6.23-2.86,9.83-7.34,10.75l7.94,18Zm-13.82-20.37h5.6c5.08,0,7.9-2.69,7.9-8.33s-2.82-7.8-7.9-7.8h-5.6Z" transform="translate(-7 -33)"/><path d="M491.11,1411.37l1.49-2.26c2.13,3.23,5.16,5.22,8.5,5.22,4.36,0,7.06-3.07,7.06-7.53,0-4.73-2.3-6.23-5.2-8l-4.4-2.58c-2.62-1.56-6-4-6-9.79s3.71-9.83,8.71-9.83a10.18,10.18,0,0,1,8.3,4.73l-1.37,2.09a8.53,8.53,0,0,0-6.93-3.92c-3.75,0-6.25,2.63-6.25,6.66,0,4.46,2.86,6.13,5,7.37l4.39,2.58c3.35,2,6.17,4.46,6.17,10.43s-3.75,10.64-9.52,10.64C496.83,1417.23,493.44,1414.86,491.11,1411.37Z" transform="translate(-7 -33)"/><path d="M522.07,1380.09h-9.23v-2.75h21v2.75h-9.27v36.44h-2.46Z" transform="translate(-7 -33)"/><path d="M554.26,1377.34h2.5l12,26.93,3.26,7.91h.21c-.17-3.87-.33-7.8-.33-11.61v-23.23h2.3v39.19h-2.5l-12-27-3.31-7.85h-.2c.12,3.76.32,7.42.32,11.34v23.49h-2.29Z" transform="translate(-7 -33)"/><path d="M596,1403.36H584.57l-3.34,13.17h-2.42l10.28-39.19h2.5l10.28,39.19h-2.58Zm-.64-2.58-1.78-7.09c-1.21-4.57-2.17-8.71-3.22-13.44h-.16c-1,4.73-2,8.87-3.19,13.44l-1.81,7.09Z" transform="translate(-7 -33)"/><path d="M606.42,1377.34h2.5l12,26.93,3.27,7.91h.2c-.16-3.87-.32-7.8-.32-11.61v-23.23h2.3v39.19h-2.5l-12-27-3.3-7.85h-.2c.12,3.76.32,7.42.32,11.34v23.49h-2.3Z" transform="translate(-7 -33)"/><path d="M648,1396.91c0-12.52,5.36-20.26,13.1-20.26,4,0,6.53,2.47,8.15,4.73l-1.41,2.09c-1.5-2.15-3.51-3.92-6.7-3.92-6.53,0-10.6,6.66-10.6,17.25s3.83,17.53,10.44,17.53a7.82,7.82,0,0,0,6.25-2.8v-11.77h-6.81V1397h9.15v15.75a10.55,10.55,0,0,1-8.83,4.46C653.12,1417.23,648,1409.44,648,1396.91Z" transform="translate(-7 -33)"/><path d="M675.09,1396.8c0-12.41,5.08-20.15,12.18-20.15s12.21,7.74,12.21,20.15-5,20.43-12.21,20.43S675.09,1409.27,675.09,1396.8Zm21.89,0c0-10.64-3.87-17.25-9.71-17.25s-9.64,6.61-9.64,17.25,3.83,17.53,9.64,17.53S697,1407.45,697,1396.8Z" transform="translate(-7 -33)"/><path d="M706.22,1377.34h2.42v36.4H722v2.79h-15.8Z" transform="translate(-7 -33)"/><path d="M727.26,1377.34h6.93c9,0,13.47,7.48,13.47,19.46s-4.44,19.73-13.42,19.73h-7Zm6.69,36.45c7.74,0,11.17-6.83,11.17-17S741.69,1380,734,1380h-4.27v33.76Z" transform="translate(-7 -33)"/><path d="M754.35,1377.34h2.42v39.19h-2.42Z" transform="translate(-7 -33)"/><path d="M765.32,1377.34h2.5l12,26.93,3.27,7.91h.2c-.16-3.87-.33-7.8-.33-11.61v-23.23h2.3v39.19h-2.5l-12-27-3.31-7.85h-.2c.12,3.76.33,7.42.33,11.34v23.49h-2.3Z" transform="translate(-7 -33)"/><path d="M808.71,1377.34h2.42v36.4h13.38v2.79h-15.8Z" transform="translate(-7 -33)"/><path d="M829.76,1377.34H846v2.75H832.18v14.29h11.65v2.75H832.18v16.61h14.27v2.79H829.76Z" transform="translate(-7 -33)"/><path d="M852.86,1377.34H869.1v2.75H855.28v14.29h11.65v2.75H855.28v16.61h14.27v2.79H852.86Z" transform="translate(-7 -33)"/><path d="M890.73,1401.21v-23.87h2.42v23.71c0,10.21,3.55,13.28,7.62,13.28s7.78-3.07,7.78-13.28v-23.71h2.3v23.87c0,12.36-4.8,16-10.08,16S890.73,1413.57,890.73,1401.21Z" transform="translate(-7 -33)"/><path d="M919.27,1377.34h2.5l12,26.93,3.27,7.91h.2c-.16-3.87-.32-7.8-.32-11.61v-23.23h2.3v39.19h-2.5l-12-27-3.3-7.85h-.2c.12,3.76.32,7.42.32,11.34v23.49h-2.3Z" transform="translate(-7 -33)"/><path d="M945.92,1396.91c0-12.52,5.36-20.26,13.1-20.26,4,0,6.53,2.47,8.14,4.73l-1.41,2.09c-1.49-2.15-3.5-3.92-6.69-3.92-6.53,0-10.6,6.66-10.6,17.25s3.83,17.53,10.44,17.53a7.82,7.82,0,0,0,6.25-2.8v-11.77h-6.81V1397h9.15v15.75a10.56,10.56,0,0,1-8.83,4.46C951.08,1417.23,945.92,1409.44,945.92,1396.91Z" transform="translate(-7 -33)"/><path d="M974.91,1377.34h2.49l12,26.93,3.26,7.91h.2c-.16-3.87-.32-7.8-.32-11.61v-23.23h2.3v39.19h-2.5l-12-27-3.31-7.85h-.2c.12,3.76.32,7.42.32,11.34v23.49h-2.29Z" transform="translate(-7 -33)"/><path d="M1001.55,1396.8c0-12.41,5.08-20.15,12.18-20.15s12.21,7.74,12.21,20.15-5,20.43-12.21,20.43S1001.55,1409.27,1001.55,1396.8Zm21.89,0c0-10.64-3.87-17.25-9.71-17.25s-9.64,6.61-9.64,17.25,3.83,17.53,9.64,17.53S1023.44,1407.45,1023.44,1396.8Z" transform="translate(-7 -33)"/><path d="M1047.57,1377.34h7.62c6.65,0,10.72,2.91,10.72,11,0,7.85-4,11.61-10.56,11.61H1050v16.56h-2.42Zm7.3,20c5.8,0,8.58-2.64,8.58-8.93s-2.9-8.33-8.75-8.33H1050v17.26Z" transform="translate(-7 -33)"/><path d="M1083.29,1403.36h-11.45l-3.35,13.17h-2.42l10.28-39.19h2.5l10.28,39.19h-2.58Zm-.65-2.58-1.77-7.09c-1.21-4.57-2.18-8.71-3.23-13.44h-.16c-1,4.73-2,8.87-3.18,13.44l-1.82,7.09Z" transform="translate(-7 -33)"/><path d="M1109.94,1416.53l-7.82-17.68h-6v17.68h-2.42v-39.19h8.59c5.84,0,9.79,2.85,9.79,10.49,0,6.23-2.86,9.83-7.33,10.75l7.94,18Zm-13.83-20.37h5.6c5.08,0,7.9-2.69,7.9-8.33s-2.82-7.8-7.9-7.8h-5.6Z" transform="translate(-7 -33)"/><path d="M1118.2,1377.34h2.42v21.29h.08l13.79-21.29h2.86l-9.35,14.57,10.68,24.62h-2.78l-9.52-22.09-5.76,8.87v13.22h-2.42Z" transform="translate(-7 -33)"/><path d="M1156,1411.37l1.49-2.26c2.14,3.23,5.16,5.22,8.51,5.22,4.35,0,7-3.07,7-7.53,0-4.73-2.29-6.23-5.2-8l-4.39-2.58c-2.62-1.56-6-4-6-9.79s3.71-9.83,8.71-9.83a10.16,10.16,0,0,1,8.3,4.73l-1.37,2.09a8.53,8.53,0,0,0-6.93-3.92c-3.75,0-6.25,2.63-6.25,6.66,0,4.46,2.86,6.13,5,7.37l4.39,2.58c3.35,2,6.17,4.46,6.17,10.43s-3.75,10.64-9.51,10.64C1161.72,1417.23,1158.33,1414.86,1156,1411.37Z" transform="translate(-7 -33)"/><path d="M1181.59,1377.34h16.25v2.75H1184v14.29h11.65v2.75H1184v16.61h14.27v2.79h-16.69Z" transform="translate(-7 -33)"/><path d="M1202.84,1396.8c0-12.41,5.08-20.15,12.17-20.15s12.22,7.74,12.22,20.15-5,20.43-12.22,20.43S1202.84,1409.27,1202.84,1396.8Zm21.89,0c0-10.64-3.87-17.25-9.72-17.25s-9.63,6.61-9.63,17.25,3.83,17.53,9.63,17.53S1224.73,1407.45,1224.73,1396.8Z" transform="translate(-7 -33)"/><path d="M1248.85,1377.34h8.1c5.93,0,9.8,2.91,9.8,9.52,0,4-1.57,7.36-4.51,8.54v.27c3.78.86,6.28,4,6.28,9.41,0,7.58-4.35,11.45-11,11.45h-8.71Zm7.34,17.1c5.8,0,8.14-2.74,8.14-7.21,0-5.32-2.7-7.25-7.9-7.25h-5.16v14.46Zm.8,19.4c5.69,0,9.16-2.69,9.16-8.76,0-5.48-3.31-8.06-9.16-8.06h-5.72v16.82Z" transform="translate(-7 -33)"/><path d="M1272.88,1396.8c0-12.41,5.08-20.15,12.17-20.15s12.22,7.74,12.22,20.15-5,20.43-12.22,20.43S1272.88,1409.27,1272.88,1396.8Zm21.89,0c0-10.64-3.87-17.25-9.72-17.25s-9.63,6.61-9.63,17.25,3.83,17.53,9.63,17.53S1294.77,1407.45,1294.77,1396.8Z" transform="translate(-7 -33)"/><path d="M1318.9,1377.34h8.1c5.93,0,9.8,2.91,9.8,9.52,0,4-1.58,7.36-4.52,8.54v.27c3.79.86,6.29,4,6.29,9.41,0,7.58-4.35,11.45-11,11.45h-8.7Zm7.33,17.1c5.81,0,8.15-2.74,8.15-7.21,0-5.32-2.7-7.25-7.9-7.25h-5.16v14.46Zm.81,19.4c5.68,0,9.15-2.69,9.15-8.76,0-5.48-3.31-8.06-9.15-8.06h-5.72v16.82Z" transform="translate(-7 -33)"/><path d="M1344.78,1377.34H1361v2.75H1347.2v14.29h11.65v2.75H1347.2v16.61h14.27v2.79h-16.69Z" transform="translate(-7 -33)"/><path d="M1384.12,1416.53l-7.82-17.68h-6v17.68h-2.42v-39.19h8.59c5.84,0,9.79,2.85,9.79,10.49,0,6.23-2.86,9.83-7.34,10.75l7.95,18Zm-13.82-20.37h5.6c5.08,0,7.9-2.69,7.9-8.33s-2.82-7.8-7.9-7.8h-5.6Z" transform="translate(-7 -33)"/><path d="M1392.39,1377.34h2.5l12,26.93,3.27,7.91h.2c-.16-3.87-.32-7.8-.32-11.61v-23.23h2.29v39.19h-2.5l-12-27-3.3-7.85h-.21c.13,3.76.33,7.42.33,11.34v23.49h-2.3Z" transform="translate(-7 -33)"/><path d="M1434.15,1403.36h-11.44l-3.35,13.17h-2.42l10.28-39.19h2.5l10.28,39.19h-2.58Zm-.64-2.58-1.77-7.09c-1.21-4.57-2.18-8.71-3.23-13.44h-.16c-1,4.73-2,8.87-3.19,13.44l-1.81,7.09Z" transform="translate(-7 -33)"/><path d="M1460.8,1416.53l-7.82-17.68h-6v17.68h-2.41v-39.19h8.58c5.85,0,9.8,2.85,9.8,10.49,0,6.23-2.86,9.83-7.34,10.75l7.94,18ZM1447,1396.16h5.61c5.08,0,7.9-2.69,7.9-8.33s-2.82-7.8-7.9-7.8H1447Z" transform="translate(-7 -33)"/><path d="M1469.07,1377.34H1476c9,0,13.46,7.48,13.46,19.46s-4.43,19.73-13.42,19.73h-7Zm6.69,36.45c7.74,0,11.16-6.83,11.16-17s-3.42-16.77-11.16-16.77h-4.27v33.76Z" transform="translate(-7 -33)"/><path d="M7,1441.85h8.1c5.93,0,9.8,2.9,9.8,9.51,0,4-1.57,7.37-4.52,8.55v.27c3.79.86,6.29,4,6.29,9.4,0,7.58-4.35,11.45-11,11.45H7Zm7.34,17.09c5.8,0,8.14-2.74,8.14-7.2,0-5.32-2.7-7.26-7.9-7.26H9.42v14.46Zm.8,19.41c5.69,0,9.15-2.69,9.15-8.77,0-5.48-3.3-8.06-9.15-8.06H9.42v16.83Z" transform="translate(-7 -33)"/><path d="M32.76,1465.71v-23.86h2.42v23.7c0,10.22,3.55,13.28,7.62,13.28s7.78-3.06,7.78-13.28v-23.7h2.3v23.86c0,12.37-4.8,16-10.08,16S32.76,1478.08,32.76,1465.71Z" transform="translate(-7 -33)"/><path d="M61.3,1441.85H77.51v2.74H63.72v15.1H75.37v2.74H63.72V1481H61.3Z" transform="translate(-7 -33)"/><path d="M82.75,1441.85H99v2.74H85.17v15.1H96.82v2.74H85.17V1481H82.75Z" transform="translate(-7 -33)"/><path d="M104.2,1441.85h16.24v2.74H106.62v14.3h11.65v2.74H106.62v16.61h14.27V1481H104.2Z" transform="translate(-7 -33)"/><path d="M133.55,1444.59h-9.23v-2.74h21v2.74H136V1481h-2.46Z" transform="translate(-7 -33)"/><path d="M166.64,1479.15l16.61-34.56H168.14v-2.74h18.1v1.88l-16.57,34.51h16.77V1481h-19.8Z" transform="translate(-7 -33)"/><path d="M192.81,1441.85h2.42v17H210.5v-17h2.38V1481H210.5v-19.4H195.23V1481h-2.42Z" transform="translate(-7 -33)"/><path d="M234.69,1467.86H223.25L219.9,1481h-2.42l10.28-39.18h2.5L240.54,1481H238Zm-.64-2.58-1.77-7.09c-1.21-4.57-2.18-8.71-3.23-13.44h-.16c-1,4.73-2,8.87-3.19,13.44l-1.81,7.09Z" transform="translate(-7 -33)"/><path d="M245.1,1441.85h2.49l12,26.93,3.26,7.9h.2c-.16-3.87-.32-7.79-.32-11.61v-23.22h2.3V1481h-2.5l-12-27-3.31-7.85h-.2c.12,3.76.32,7.42.32,11.34V1481H245.1Z" transform="translate(-7 -33)"/><path d="M271.74,1461.41c0-12.52,5.36-20.26,13.1-20.26,4,0,6.54,2.47,8.15,4.73l-1.41,2.1c-1.49-2.15-3.51-3.93-6.7-3.93-6.53,0-10.6,6.67-10.6,17.26s3.83,17.52,10.44,17.52A7.82,7.82,0,0,0,291,1476v-11.77h-6.81v-2.74h9.15v15.75a10.52,10.52,0,0,1-8.83,4.46C276.9,1481.73,271.74,1473.94,271.74,1461.41Z" transform="translate(-7 -33)"/><path d="M309.68,1441.85h2.42v17h15.27v-17h2.38V1481h-2.38v-19.4H312.1V1481h-2.42Z" transform="translate(-7 -33)"/><path d="M338.18,1465.71v-23.86h2.42v23.7c0,10.22,3.55,13.28,7.62,13.28s7.78-3.06,7.78-13.28v-23.7h2.3v23.86c0,12.37-4.8,16-10.08,16S338.18,1478.08,338.18,1465.71Z" transform="translate(-7 -33)"/><path d="M379.18,1467.86H367.73L364.38,1481H362l10.28-39.18h2.5L385,1481h-2.58Zm-.65-2.58-1.77-7.09c-1.21-4.57-2.18-8.71-3.22-13.44h-.17c-1,4.73-2,8.87-3.18,13.44l-1.81,7.09Z" transform="translate(-7 -33)"/><path d="M389.58,1441.85h2.5l12,26.93,3.27,7.9h.2c-.16-3.87-.32-7.79-.32-11.61v-23.22h2.29V1481H407l-12-27-3.3-7.85h-.2c.12,3.76.32,7.42.32,11.34V1481h-2.3Z" transform="translate(-7 -33)"/><path d="M427,1441.85h3.23l6,22.52,2.3,8.6h.16c.77-2.85,1.45-5.75,2.18-8.6l6.05-22.52h3.22V1481h-2.3V1456.2c0-3.23.16-7.53.29-10.8H448l-2.29,8.76-6.17,22.68h-1.94l-6.2-22.68-2.3-8.76H429c.12,3.27.28,7.57.28,10.8V1481H427Z" transform="translate(-7 -33)"/><path d="M458.76,1441.85h2.42V1481h-2.42Z" transform="translate(-7 -33)"/><path d="M467.51,1475.87l1.49-2.25c2.14,3.22,5.16,5.21,8.5,5.21,4.36,0,7.06-3.06,7.06-7.53,0-4.73-2.3-6.23-5.2-8l-4.4-2.58c-2.62-1.56-6-4-6-9.78s3.71-9.84,8.71-9.84a10.18,10.18,0,0,1,8.3,4.73l-1.37,2.1a8.51,8.51,0,0,0-6.93-3.93c-3.75,0-6.25,2.64-6.25,6.67,0,4.46,2.86,6.12,5,7.36l4.39,2.58c3.35,2,6.17,4.46,6.17,10.43s-3.75,10.64-9.52,10.64C473.23,1481.73,469.85,1479.37,467.51,1475.87Z" transform="translate(-7 -33)"/><path d="M493.11,1441.85h2.42v17H510.8v-17h2.38V1481H510.8v-19.4H495.53V1481h-2.42Z" transform="translate(-7 -33)"/><path d="M535,1467.86H523.54L520.2,1481h-2.42l10.28-39.18h2.5L540.84,1481h-2.58Zm-.64-2.58-1.78-7.09c-1.21-4.57-2.17-8.71-3.22-13.44h-.16c-1,4.73-2,8.87-3.19,13.44l-1.81,7.09Z" transform="translate(-7 -33)"/><path d="M554.34,1441.85h2.42v21.28h.08l13.79-21.28h2.86l-9.35,14.56L574.82,1481H572l-9.51-22.09-5.77,8.87V1481h-2.42Z" transform="translate(-7 -33)"/><path d="M592.28,1467.86H580.83L577.48,1481h-2.41l10.28-39.18h2.49L598.12,1481h-2.58Zm-.65-2.58-1.77-7.09c-1.21-4.57-2.18-8.71-3.22-13.44h-.17c-1,4.73-2,8.87-3.18,13.44l-1.81,7.09Z" transform="translate(-7 -33)"/><path d="M602.68,1441.85h2.42v17h15.28v-17h2.38V1481h-2.38v-19.4H605.1V1481h-2.42Z" transform="translate(-7 -33)"/><path d="M631.3,1441.85h2.5l12,26.93,3.26,7.9h.2c-.16-3.87-.32-7.79-.32-11.61v-23.22h2.3V1481h-2.5l-12-27-3.31-7.85h-.2c.12,3.76.32,7.42.32,11.34V1481h-2.3Z" transform="translate(-7 -33)"/><path d="M668.75,1441.85h2.42v36.39h13.39V1481H668.75Z" transform="translate(-7 -33)"/><path d="M689.8,1441.85H706v2.74H692.22v14.3h11.65v2.74H692.22v16.61h14.27V1481H689.8Z" transform="translate(-7 -33)"/><path d="M712.9,1441.85h16.24v2.74H715.32v14.3H727v2.74H715.32v16.61h14.27V1481H712.9Z" transform="translate(-7 -33)"/><path d="M745,1441.85h8.1c5.93,0,9.8,2.9,9.8,9.51,0,4-1.58,7.37-4.52,8.55v.27c3.79.86,6.29,4,6.29,9.4,0,7.58-4.35,11.45-11,11.45H745Zm7.34,17.09c5.8,0,8.14-2.74,8.14-7.2,0-5.32-2.7-7.26-7.9-7.26h-5.16v14.46Zm.8,19.41c5.69,0,9.15-2.69,9.15-8.77,0-5.48-3.3-8.06-9.15-8.06h-5.72v16.83Z" transform="translate(-7 -33)"/><path d="M770.71,1465.71v-23.86h2.42v23.7c0,10.22,3.55,13.28,7.62,13.28s7.78-3.06,7.78-13.28v-23.7h2.3v23.86c0,12.37-4.8,16-10.08,16S770.71,1478.08,770.71,1465.71Z" transform="translate(-7 -33)"/><path d="M799.25,1441.85h2.42v36.39h13.38V1481h-15.8Z" transform="translate(-7 -33)"/><path d="M829.24,1441.85h2.42v21.28h.08l13.79-21.28h2.86L839,1456.41,849.72,1481h-2.78l-9.51-22.09-5.77,8.87V1481h-2.42Z" transform="translate(-7 -33)"/><path d="M854.36,1441.85h2.42V1481h-2.42Z" transform="translate(-7 -33)"/><path d="M865.33,1441.85h3.22l6.05,22.52,2.3,8.6h.16c.76-2.85,1.45-5.75,2.17-8.6l6-22.52h3.23V1481h-2.3V1456.2c0-3.23.16-7.53.28-10.8h-.16l-2.3,8.76-6.17,22.68h-1.93l-6.21-22.68-2.3-8.76h-.16c.12,3.27.28,7.57.28,10.8V1481h-2.21Z" transform="translate(-7 -33)"/><path d="M903.79,1475.87l1.49-2.25c2.13,3.22,5.16,5.21,8.5,5.21,4.36,0,7.06-3.06,7.06-7.53,0-4.73-2.3-6.23-5.2-8l-4.4-2.58c-2.62-1.56-6-4-6-9.78s3.71-9.84,8.7-9.84a10.2,10.2,0,0,1,8.31,4.73l-1.37,2.1c-1.74-2.37-4-3.93-6.94-3.93-3.74,0-6.24,2.64-6.24,6.67,0,4.46,2.86,6.12,5,7.36l4.4,2.58c3.34,2,6.17,4.46,6.17,10.43s-3.75,10.64-9.52,10.64C909.51,1481.73,906.12,1479.37,903.79,1475.87Z" transform="translate(-7 -33)"/><path d="M929.26,1465.71v-23.86h2.42v23.7c0,10.22,3.55,13.28,7.62,13.28s7.78-3.06,7.78-13.28v-23.7h2.3v23.86c0,12.37-4.8,16-10.08,16S929.26,1478.08,929.26,1465.71Z" transform="translate(-7 -33)"/><path d="M957.81,1441.85h2.49l12,26.93,3.26,7.9h.2c-.16-3.87-.32-7.79-.32-11.61v-23.22h2.3V1481h-2.5l-12-27L960,1446.2h-.2c.12,3.76.32,7.42.32,11.34V1481h-2.29Z" transform="translate(-7 -33)"/><path d="M992.19,1441.85h2.5l3.55,22.68c.68,4.25,1.33,8.5,2,12.8h.17c.72-4.3,1.49-8.55,2.25-12.8l4.48-22.68h2.38l4.51,22.68c.77,4.25,1.49,8.5,2.26,12.8h.2c.6-4.3,1.21-8.55,1.85-12.8l3.55-22.68h2.38l-6.45,39.18h-2.74l-5.2-26.17c-.48-3.12-1-5.81-1.53-8.82h-.16c-.49,3-1.09,5.7-1.62,8.82l-5,26.17h-2.74Z" transform="translate(-7 -33)"/><path d="M1027.59,1461.31c0-12.42,5.08-20.16,12.17-20.16s12.22,7.74,12.22,20.16-5,20.42-12.22,20.42S1027.59,1473.78,1027.59,1461.31Zm21.89,0c0-10.65-3.87-17.26-9.72-17.26s-9.63,6.61-9.63,17.26,3.83,17.52,9.63,17.52S1049.48,1472,1049.48,1461.31Z" transform="translate(-7 -33)"/><path d="M1056.86,1461.31c0-12.42,5.08-20.16,12.17-20.16s12.22,7.74,12.22,20.16-5,20.42-12.22,20.42S1056.86,1473.78,1056.86,1461.31Zm21.89,0c0-10.65-3.87-17.26-9.72-17.26s-9.63,6.61-9.63,17.26,3.83,17.52,9.63,17.52S1078.75,1472,1078.75,1461.31Z" transform="translate(-7 -33)"/><path d="M1110.19,1467.86h-11.45L1095.4,1481H1093l10.28-39.18h2.5L1116,1481h-2.58Zm-.64-2.58-1.78-7.09c-1.2-4.57-2.17-8.71-3.22-13.44h-.16c-1,4.73-2,8.87-3.19,13.44l-1.81,7.09Z" transform="translate(-7 -33)"/><path d="M1120.6,1441.85H1123V1481h-2.41Z" transform="translate(-7 -33)"/><path d="M1137.45,1441.85h2.5l3.54,22.68c.69,4.25,1.33,8.5,2,12.8h.16c.73-4.3,1.49-8.55,2.26-12.8l4.47-22.68h2.38l4.52,22.68c.76,4.25,1.49,8.5,2.25,12.8h.2c.61-4.3,1.21-8.55,1.86-12.8l3.55-22.68h2.37L1163,1481h-2.74l-5.2-26.17c-.48-3.12-1-5.81-1.53-8.82h-.16c-.48,3-1.09,5.7-1.61,8.82l-5,26.17H1144Z" transform="translate(-7 -33)"/><path d="M1175.06,1441.85h16.25v2.74h-13.83v14.3h11.65v2.74h-11.65v16.61h14.27V1481h-16.69Z" transform="translate(-7 -33)"/><path d="M1198.16,1441.85h2.42V1481h-2.42Z" transform="translate(-7 -33)"/><path d="M1206.06,1441.85h2.5l3.55,22.68c.68,4.25,1.33,8.5,2,12.8h.16c.73-4.3,1.5-8.55,2.26-12.8l4.48-22.68h2.37l4.52,22.68c.77,4.25,1.49,8.5,2.26,12.8h.2c.6-4.3,1.21-8.55,1.85-12.8l3.55-22.68h2.38l-6.45,39.18h-2.74l-5.2-26.17c-.49-3.12-1-5.81-1.53-8.82H1222c-.48,3-1.08,5.7-1.61,8.82l-5,26.17h-2.74Z" transform="translate(-7 -33)"/><path d="M1243.67,1441.85h16.25v2.74h-13.83v14.3h11.65v2.74h-11.65v16.61h14.27V1481h-16.69Z" transform="translate(-7 -33)"/><path d="M1266.77,1441.85h2.42V1481h-2.42Z" transform="translate(-7 -33)"/><path d="M1286.69,1441.85h2.5l12,26.93,3.27,7.9h.2c-.16-3.87-.33-7.79-.33-11.61v-23.22h2.3V1481h-2.5l-12-27-3.31-7.85h-.2c.12,3.76.33,7.42.33,11.34V1481h-2.3Z" transform="translate(-7 -33)"/><path d="M1328.45,1467.86H1317l-3.34,13.17h-2.42l10.28-39.18h2.5L1334.3,1481h-2.58Zm-.64-2.58-1.78-7.09c-1.21-4.57-2.17-8.71-3.22-13.44h-.16c-1,4.73-2,8.87-3.19,13.44l-1.81,7.09Z" transform="translate(-7 -33)"/><path d="M1343.05,1444.59h-9.23v-2.74h21v2.74h-9.27V1481h-2.46Z" transform="translate(-7 -33)"/><path d="M1360.34,1441.85h2.42v17H1378v-17h2.38V1481H1378v-19.4h-15.28V1481h-2.42Z" transform="translate(-7 -33)"/><path d="M1402.23,1467.86h-11.45l-3.35,13.17H1385l10.28-39.18h2.49l10.28,39.18h-2.58Zm-.65-2.58-1.77-7.09c-1.21-4.57-2.18-8.71-3.22-13.44h-.17c-1,4.73-2,8.87-3.18,13.44l-1.81,7.09Z" transform="translate(-7 -33)"/><path d="M1412.63,1441.85h2.5l12,26.93,3.27,7.9h.2c-.16-3.87-.32-7.79-.32-11.61v-23.22h2.3V1481h-2.5l-12-27-3.3-7.85h-.2c.12,3.76.32,7.42.32,11.34V1481h-2.3Z" transform="translate(-7 -33)"/><path d="M1441.13,1441.85h2.42V1481h-2.42Z" transform="translate(-7 -33)"/><path d="M1452.1,1441.85h16.24v2.74h-13.82v14.3h11.65v2.74h-11.65v16.61h14.27V1481H1452.1Z" transform="translate(-7 -33)"/><path d="M1475.2,1441.85h2.42v36.39H1491V1481h-15.8Z" transform="translate(-7 -33)"/><path d="M7,1506.35h3.22l6,22.52,2.3,8.6h.16c.77-2.84,1.45-5.75,2.18-8.6l6-22.52h3.23v39.19h-2.3V1520.7c0-3.22.16-7.52.28-10.8H28l-2.3,8.76-6.16,22.69H17.6l-6.21-22.69L9.1,1509.9H8.93c.13,3.28.29,7.58.29,10.8v24.84H7Z" transform="translate(-7 -33)"/><path d="M52,1532.37H40.54l-3.34,13.17H34.78l10.28-39.19h2.5l10.28,39.19H55.26Zm-.64-2.58-1.78-7.1c-1.21-4.57-2.18-8.71-3.22-13.44h-.16c-1,4.73-2,8.87-3.19,13.44l-1.81,7.1Z" transform="translate(-7 -33)"/><path d="M78.64,1545.54l-7.82-17.69h-6v17.69H62.39v-39.19H71c5.84,0,9.79,2.85,9.79,10.48,0,6.24-2.86,9.84-7.33,10.75l7.94,18Zm-13.83-20.38h5.6c5.08,0,7.91-2.68,7.91-8.33s-2.83-7.79-7.91-7.79h-5.6Z" transform="translate(-7 -33)"/><path d="M91.78,1529.79,83,1506.35h2.58l4.32,12c1,2.85,2,5.59,3.06,8.49h.16c1.13-2.9,2.22-5.64,3.14-8.49l4.32-12H103l-8.83,23.44v15.75H91.78Z" transform="translate(-7 -33)"/><path d="M142.11,1554.19a9.54,9.54,0,0,1-3.75.7c-5,0-8.46-3.71-10-8.76-6.45-.86-10.92-8.6-10.92-20.32,0-12.42,5.08-20.16,12.17-20.16s12.22,7.74,12.22,20.16c0,11.61-4.4,19.35-10.81,20.32,1.29,3.82,4,5.91,7.54,5.91a7.09,7.09,0,0,0,3-.54Zm-12.46-10.69c5.85,0,9.72-6.94,9.72-17.69s-3.87-17.25-9.72-17.25-9.63,6.61-9.63,17.25S123.85,1543.5,129.65,1543.5Z" transform="translate(-7 -33)"/><path d="M148.48,1530.22v-23.87h2.42v23.71c0,10.21,3.55,13.27,7.62,13.27s7.78-3.06,7.78-13.27v-23.71h2.3v23.87c0,12.36-4.8,16-10.08,16S148.48,1542.58,148.48,1530.22Z" transform="translate(-7 -33)"/><path d="M177,1506.35h2.42v39.19H177Z" transform="translate(-7 -33)"/><path d="M188,1506.35h2.5l12,26.93,3.27,7.9h.2c-.16-3.87-.32-7.79-.32-11.61v-23.22h2.29v39.19h-2.5l-12-27-3.3-7.84H190c.13,3.76.33,7.41.33,11.34v23.49H188Z" transform="translate(-7 -33)"/><path d="M216.49,1506.35H219l12,26.93,3.27,7.9h.2c-.16-3.87-.32-7.79-.32-11.61v-23.22h2.3v39.19H234l-12-27-3.3-7.84h-.2c.12,3.76.32,7.41.32,11.34v23.49h-2.3Z" transform="translate(-7 -33)"/><path d="M267,1525.92c0-12.53,5.36-20.27,13.1-20.27,4,0,6.53,2.47,8.15,4.73l-1.41,2.1c-1.5-2.15-3.51-3.92-6.7-3.92-6.53,0-10.6,6.66-10.6,17.25s3.83,17.52,10.44,17.52a7.84,7.84,0,0,0,6.25-2.79v-11.77h-6.81V1526h9.15v15.75a10.55,10.55,0,0,1-8.83,4.47C272.2,1546.24,267,1538.44,267,1525.92Z" transform="translate(-7 -33)"/><path d="M294.17,1525.81c0-12.42,5.08-20.16,12.18-20.16s12.21,7.74,12.21,20.16-5,20.43-12.21,20.43S294.17,1538.28,294.17,1525.81Zm21.89,0c0-10.64-3.87-17.25-9.71-17.25s-9.64,6.61-9.64,17.25,3.83,17.52,9.64,17.52S316.06,1536.45,316.06,1525.81Z" transform="translate(-7 -33)"/><path d="M329.05,1529.79l-8.83-23.44h2.58l4.31,12c1.05,2.85,2,5.59,3.06,8.49h.17c1.12-2.9,2.21-5.64,3.14-8.49l4.31-12h2.5l-8.83,23.44v15.75h-2.41Z" transform="translate(-7 -33)"/><path d="M342.27,1525.81c0-12.42,5.08-20.16,12.17-20.16s12.22,7.74,12.22,20.16-5,20.43-12.22,20.43S342.27,1538.28,342.27,1525.81Zm21.89,0c0-10.64-3.87-17.25-9.72-17.25s-9.63,6.61-9.63,17.25,3.83,17.52,9.63,17.52S364.16,1536.45,364.16,1525.81Z" transform="translate(-7 -33)"/><path d="M383.13,1540.38l1.49-2.26c2.14,3.23,5.16,5.21,8.5,5.21,4.36,0,7.06-3.06,7.06-7.52,0-4.73-2.3-6.24-5.2-8l-4.39-2.58c-2.62-1.56-6-4-6-9.78s3.71-9.84,8.71-9.84a10.18,10.18,0,0,1,8.3,4.73l-1.37,2.1a8.5,8.5,0,0,0-6.93-3.92c-3.75,0-6.25,2.63-6.25,6.66,0,4.46,2.86,6.13,5,7.36l4.39,2.58c3.35,2,6.17,4.47,6.17,10.43s-3.75,10.65-9.52,10.65C388.85,1546.24,385.47,1543.87,383.13,1540.38Z" transform="translate(-7 -33)"/><path d="M406.87,1525.81c0-12.42,5.08-20.16,12.18-20.16s12.21,7.74,12.21,20.16-5,20.43-12.21,20.43S406.87,1538.28,406.87,1525.81Zm21.89,0c0-10.64-3.87-17.25-9.71-17.25s-9.64,6.61-9.64,17.25,3.83,17.52,9.64,17.52S428.76,1536.45,428.76,1525.81Z" transform="translate(-7 -33)"/><path d="M438,1506.35h2.49l12,26.93,3.26,7.9h.2c-.16-3.87-.32-7.79-.32-11.61v-23.22H458v39.19h-2.5l-12-27-3.31-7.84H440c.12,3.76.32,7.41.32,11.34v23.49H438Z" transform="translate(-7 -33)"/><path d="M478.45,1506.35h3.22l6.05,22.52,2.3,8.6h.16c.77-2.84,1.45-5.75,2.18-8.6l6-22.52h3.23v39.19h-2.3V1520.7c0-3.22.16-7.52.28-10.8h-.16l-2.3,8.76L491,1541.35h-1.94l-6.21-22.69-2.3-8.76h-.16c.12,3.28.29,7.58.29,10.8v24.84h-2.22Z" transform="translate(-7 -33)"/><path d="M523.44,1532.37H512l-3.35,13.17h-2.41l10.28-39.19H519l10.28,39.19H526.7Zm-.65-2.58-1.77-7.1c-1.21-4.57-2.18-8.71-3.22-13.44h-.17c-1,4.73-2,8.87-3.18,13.44l-1.81,7.1Z" transform="translate(-7 -33)"/><path d="M531.54,1525.81c0-12.42,5.08-20.16,12.18-20.16s12.21,7.74,12.21,20.16-5,20.43-12.21,20.43S531.54,1538.28,531.54,1525.81Zm21.89,0c0-10.64-3.87-17.25-9.71-17.25s-9.64,6.61-9.64,17.25,3.83,17.52,9.64,17.52S553.43,1536.45,553.43,1525.81Z" transform="translate(-7 -33)"/><path d="M572.4,1540.38l1.49-2.26c2.14,3.23,5.16,5.21,8.51,5.21,4.35,0,7.05-3.06,7.05-7.52,0-4.73-2.3-6.24-5.2-8l-4.39-2.58c-2.62-1.56-6-4-6-9.78s3.71-9.84,8.71-9.84a10.16,10.16,0,0,1,8.3,4.73l-1.37,2.1a8.5,8.5,0,0,0-6.93-3.92c-3.75,0-6.25,2.63-6.25,6.66,0,4.46,2.86,6.13,5,7.36l4.39,2.58c3.35,2,6.17,4.47,6.17,10.43s-3.75,10.65-9.51,10.65C578.12,1546.24,574.74,1543.87,572.4,1540.38Z" transform="translate(-7 -33)"/><path d="M597.88,1530.22v-23.87h2.42v23.71c0,10.21,3.54,13.27,7.62,13.27s7.78-3.06,7.78-13.27v-23.71H618v23.87c0,12.36-4.79,16-10.07,16S597.88,1542.58,597.88,1530.22Z" transform="translate(-7 -33)"/><path d="M642.67,1545.54l-7.82-17.69h-6v17.69h-2.42v-39.19H635c5.84,0,9.79,2.85,9.79,10.48,0,6.24-2.86,9.84-7.33,10.75l7.94,18Zm-13.83-20.38h5.6c5.08,0,7.9-2.68,7.9-8.33s-2.82-7.79-7.9-7.79h-5.6Z" transform="translate(-7 -33)"/><path d="M650.93,1506.35h2.42v39.19h-2.42Z" transform="translate(-7 -33)"/><path d="M661.9,1506.35h2.5l12,26.93,3.26,7.9h.21c-.17-3.87-.33-7.79-.33-11.61v-23.22h2.3v39.19h-2.5l-12-27-3.31-7.84h-.2c.12,3.76.32,7.41.32,11.34v23.49H661.9Z" transform="translate(-7 -33)"/><path d="M688.54,1525.92c0-12.53,5.37-20.27,13.11-20.27,4,0,6.53,2.47,8.14,4.73l-1.41,2.1c-1.49-2.15-3.51-3.92-6.69-3.92-6.53,0-10.61,6.66-10.61,17.25s3.83,17.52,10.44,17.52a7.84,7.84,0,0,0,6.25-2.79v-11.77H701V1526h9.15v15.75a10.53,10.53,0,0,1-8.83,4.47C693.7,1546.24,688.54,1538.44,688.54,1525.92Z" transform="translate(-7 -33)"/><path d="M729.48,1506.35h2.42v39.19h-2.42Z" transform="translate(-7 -33)"/><path d="M740.45,1506.35H743l12,26.93,3.26,7.9h.21c-.17-3.87-.33-7.79-.33-11.61v-23.22h2.3v39.19h-2.5l-12-27-3.31-7.84h-.2c.12,3.76.32,7.41.32,11.34v23.49h-2.29Z" transform="translate(-7 -33)"/><path d="M775.2,1509.09H766v-2.74h21v2.74h-9.27v36.45H775.2Z" transform="translate(-7 -33)"/><path d="M808.74,1545.54l-7.82-17.69h-6v17.69h-2.42v-39.19h8.59c5.84,0,9.79,2.85,9.79,10.48,0,6.24-2.86,9.84-7.33,10.75l7.94,18Zm-13.83-20.38h5.6c5.08,0,7.91-2.68,7.91-8.33s-2.83-7.79-7.91-7.79h-5.6Z" transform="translate(-7 -33)"/><path d="M830.27,1532.37H818.82l-3.35,13.17h-2.42l10.28-39.19h2.5l10.28,39.19h-2.58Zm-.65-2.58-1.77-7.1c-1.21-4.57-2.18-8.71-3.23-13.44h-.16c-1,4.73-2,8.87-3.18,13.44l-1.82,7.1Z" transform="translate(-7 -33)"/><path d="M840.67,1506.35h2.5l12,26.93,3.27,7.9h.2c-.16-3.87-.33-7.79-.33-11.61v-23.22h2.3v39.19h-2.5l-12-27-3.31-7.84h-.2c.12,3.76.33,7.41.33,11.34v23.49h-2.3Z" transform="translate(-7 -33)"/><path d="M869.17,1506.35h16.25v2.74H871.59v14.3h11.65v2.74H871.59v16.61h14.27v2.8H869.17Z" transform="translate(-7 -33)"/><path d="M898.52,1509.09h-9.23v-2.74h21v2.74H901v36.45h-2.46Z" transform="translate(-7 -33)"/><path d="M913,1525.92c0-12.53,5.36-20.27,13.1-20.27,4,0,6.53,2.47,8.15,4.73l-1.41,2.1c-1.5-2.15-3.51-3.92-6.7-3.92-6.53,0-10.6,6.66-10.6,17.25s3.83,17.52,10.44,17.52a7.84,7.84,0,0,0,6.25-2.79v-11.77h-6.81V1526h9.15v15.75a10.53,10.53,0,0,1-8.83,4.47C918.15,1546.24,913,1538.44,913,1525.92Z" transform="translate(-7 -33)"/><path d="M942,1506.35h2.42v39.19H942Z" transform="translate(-7 -33)"/><path d="M969.19,1545.54l-7.82-17.69h-6v17.69h-2.42v-39.19h8.59c5.84,0,9.8,2.85,9.8,10.48,0,6.24-2.87,9.84-7.34,10.75l7.94,18Zm-13.83-20.38H961c5.07,0,7.9-2.68,7.9-8.33S966,1509,961,1509h-5.61Z" transform="translate(-7 -33)"/><path d="M977.45,1506.35h2.42v36.39h13.39v2.8H977.45Z" transform="translate(-7 -33)"/><path d="M1008.23,1540.38l1.49-2.26c2.14,3.23,5.16,5.21,8.51,5.21,4.35,0,7-3.06,7-7.52,0-4.73-2.29-6.24-5.2-8l-4.39-2.58c-2.62-1.56-6-4-6-9.78s3.71-9.84,8.71-9.84a10.2,10.2,0,0,1,8.31,4.73l-1.37,2.1a8.53,8.53,0,0,0-6.94-3.92c-3.75,0-6.25,2.63-6.25,6.66,0,4.46,2.87,6.13,5,7.36l4.4,2.58c3.34,2,6.16,4.47,6.16,10.43s-3.75,10.65-9.51,10.65C1014,1546.24,1010.57,1543.87,1008.23,1540.38Z" transform="translate(-7 -33)"/><path d="M1033.83,1506.35h2.42v39.19h-2.42Z" transform="translate(-7 -33)"/><path d="M1051.05,1509.09h-9.24v-2.74h21v2.74h-9.28v36.45h-2.45Z" transform="translate(-7 -33)"/><path d="M1065.52,1525.92c0-12.53,5.2-20.27,12.66-20.27,3.46,0,6.17,2.26,7.74,4.73l-1.37,2.1c-1.58-2.37-3.67-3.92-6.37-3.92-6.21,0-10.12,6.66-10.12,17.25s3.83,17.52,10,17.52c3,0,5.2-1.66,7.29-4.73l1.37,2.05c-2.25,3.49-5,5.59-8.78,5.59C1070.68,1546.24,1065.52,1538.44,1065.52,1525.92Z" transform="translate(-7 -33)"/><path d="M1092.65,1506.35h2.42v17h15.28v-17h2.38v39.19h-2.38v-19.41h-15.28v19.41h-2.42Z" transform="translate(-7 -33)"/><path d="M1131.37,1525.92c0-12.53,5.2-20.27,12.66-20.27,3.47,0,6.17,2.26,7.74,4.73l-1.37,2.1c-1.57-2.37-3.67-3.92-6.37-3.92-6.21,0-10.12,6.66-10.12,17.25s3.83,17.52,10,17.52c3,0,5.2-1.66,7.3-4.73l1.37,2.05c-2.26,3.49-5,5.59-8.79,5.59C1136.53,1546.24,1131.37,1538.44,1131.37,1525.92Z" transform="translate(-7 -33)"/><path d="M1155.56,1525.81c0-12.42,5.08-20.16,12.18-20.16s12.21,7.74,12.21,20.16-5,20.43-12.21,20.43S1155.56,1538.28,1155.56,1525.81Zm21.89,0c0-10.64-3.87-17.25-9.71-17.25s-9.64,6.61-9.64,17.25,3.83,17.52,9.64,17.52S1177.45,1536.45,1177.45,1525.81Z" transform="translate(-7 -33)"/><path d="M1186.68,1506.35h3.23l6,22.52,2.29,8.6h.17c.76-2.84,1.45-5.75,2.17-8.6l6.05-22.52h3.22v39.19h-2.29V1520.7c0-3.22.16-7.52.28-10.8h-.16l-2.3,8.76-6.17,22.69h-1.93l-6.21-22.69-2.3-8.76h-.16c.12,3.28.28,7.58.28,10.8v24.84h-2.22Z" transform="translate(-7 -33)"/><path d="M1218.41,1506.35h3.23l6,22.52,2.3,8.6h.16c.77-2.84,1.45-5.75,2.18-8.6l6-22.52h3.22v39.19h-2.3V1520.7c0-3.22.16-7.52.29-10.8h-.17l-2.29,8.76-6.17,22.69H1229l-6.2-22.69-2.3-8.76h-.16c.12,3.28.28,7.58.28,10.8v24.84h-2.22Z" transform="translate(-7 -33)"/><path d="M1248.28,1525.81c0-12.42,5.08-20.16,12.18-20.16s12.21,7.74,12.21,20.16-5,20.43-12.21,20.43S1248.28,1538.28,1248.28,1525.81Zm21.89,0c0-10.64-3.87-17.25-9.71-17.25s-9.64,6.61-9.64,17.25,3.83,17.52,9.64,17.52S1270.17,1536.45,1270.17,1525.81Z" transform="translate(-7 -33)"/><path d="M1279.41,1506.35h2.5l12,26.93,3.27,7.9h.2c-.16-3.87-.33-7.79-.33-11.61v-23.22h2.3v39.19h-2.5l-12-27-3.31-7.84h-.2c.12,3.76.33,7.41.33,11.34v23.49h-2.3Z" transform="translate(-7 -33)"/><path d="M1307.91,1506.35h16.25v2.74h-13.83v14.3H1322v2.74h-11.65v16.61h14.27v2.8h-16.69Z" transform="translate(-7 -33)"/><path d="M1347.26,1545.54l-7.82-17.69h-6v17.69H1331v-39.19h8.59c5.84,0,9.79,2.85,9.79,10.48,0,6.24-2.86,9.84-7.33,10.75l7.94,18Zm-13.83-20.38h5.6c5.08,0,7.9-2.68,7.9-8.33s-2.82-7.79-7.9-7.79h-5.6Z" transform="translate(-7 -33)"/><path d="M1352.7,1540.38l1.49-2.26c2.14,3.23,5.16,5.21,8.51,5.21,4.35,0,7-3.06,7-7.52,0-4.73-2.3-6.24-5.2-8l-4.39-2.58c-2.62-1.56-6-4-6-9.78s3.71-9.84,8.71-9.84a10.16,10.16,0,0,1,8.3,4.73l-1.37,2.1a8.5,8.5,0,0,0-6.93-3.92c-3.75,0-6.25,2.63-6.25,6.66,0,4.46,2.86,6.13,5,7.36l4.39,2.58c3.35,2,6.17,4.47,6.17,10.43s-3.75,10.65-9.51,10.65C1358.42,1546.24,1355,1543.87,1352.7,1540.38Z" transform="translate(-7 -33)"/><path d="M1390.25,1506.35h2.5l12,26.93,3.27,7.9h.2c-.16-3.87-.32-7.79-.32-11.61v-23.22h2.29v39.19h-2.5l-12-27-3.3-7.84h-.2c.12,3.76.32,7.41.32,11.34v23.49h-2.3Z" transform="translate(-7 -33)"/><path d="M1416.9,1525.81c0-12.42,5.08-20.16,12.17-20.16s12.22,7.74,12.22,20.16-5,20.43-12.22,20.43S1416.9,1538.28,1416.9,1525.81Zm21.89,0c0-10.64-3.87-17.25-9.72-17.25s-9.63,6.61-9.63,17.25,3.83,17.52,9.63,17.52S1438.79,1536.45,1438.79,1525.81Z" transform="translate(-7 -33)"/><path d="M1448,1506.35H1455c9,0,13.47,7.47,13.47,19.46s-4.44,19.73-13.43,19.73h-7Zm6.69,36.45c7.74,0,11.17-6.83,11.17-17s-3.43-16.77-11.17-16.77h-4.27v33.76Z" transform="translate(-7 -33)"/><path d="M1475.11,1506.35h2.42v36.39h13.38v2.8h-15.8Z" transform="translate(-7 -33)"/></g><g id="LOGO"><rect x="26" width="1431" height="210" style="fill:#fff"/><path id="logoP" d="M1100.77,63h159.81c82.21,0,181.42-3.28,181.42,53.31,0,36-92.62,46.76-183.39,46.76h-66V224.6h-91.87Zm91.87,74.64h46.25c25.11,0,112.88,0,112.88-24.61,0-23-94.48-19.68-114.21-19.68h-44.92Z" transform="translate(-7 -33)" style="stroke:#000;stroke-linecap:round;stroke-linejoin:round;stroke-width:6px"/><path id="logoL" d="M801.7,62.58h82.44V193h184.31l-.57,31.17H801.7Z" transform="translate(-7 -33)" style="stroke:#000;stroke-linecap:round;stroke-linejoin:round;stroke-width:6px"/><path id="logoU" d="M499.28,60l-.82,79.57c0,27.89,15.58,52.49,90.23,51.67,64.43-5.5,77.92-18.86,86.95-47.57,5.44-17.34,1.94-56.13.82-83.67h91c5.74,144.83,6.76,166.27-178.82,167.33C402.94,221.72,404.58,205.87,409.87,60Z" transform="translate(-7 -33)" style="stroke:#000;stroke-linecap:round;stroke-linejoin:round;stroke-width:6px"/><path id="logoT" d="M169.27,98.34l-116-.19V62.24H376V98.15l-119.76.19V224.66h-87Z" transform="translate(-7 -33)" style="stroke:#000;stroke-linecap:round;stroke-linejoin:round;stroke-width:6px"/></g></svg>